# xmcd
#
# Track frame offsets:
#	150
#	13928
#	26035
#	37966
#	49233
#	62063
#	75254
#	86213
#	99823
#	112127
#	126757
#	138382
#	150405
#	162670
#	174998
#	187006
#	198825
#	214343
#	233575
#	247724
#	267514
#	286402
#	305958
#
# Disc length: 4327 seconds
#
# Revision: 0
# Processed by: cddbd v1.4PL0 Copyright (c) Steve Scherf et al.
# Submitted via: EasyCDDAExtractor 4.6.0.1
#
DISCID=4110e517
DTITLE=MUGGSY SPANIER - 1939-1944
DYEAR=1900
DGENRE=
TTITLE0=BIG BUTTER AND EGG MAN
TTITLE1=SOMEDAY SWEETHEART
TTITLE2=ECCENTRIC THAT ECCENTRIC RAG
TTITLE3=THAT DA DA STRAIN
TTITLE4=AT THE JAZZ BAND BALL
TTITLE5=I WISH I COULD SHIMMY LIKE MY SISTER KATE
TTITLE6=DIPPERMOUTH BLUES SUGAR FOOT STOMP
TTITLE7=LIVERY STABLE BLUES BARNYARDBLUES
TTITLE8=RIVERBOAT SHUFFLE
TTITLE9=RELAXIN AT THE TOURO
TTITLE10=AT SUNDOWN
TTITLE11=BLUIN THE BLUES
TTITLE12=LONESOME ROAD
TTITLE13=DINAH
TTITLE14=WHAT DID I DO TO BE SO BLACK AND BLUE
TTITLE15=MANDY MAKE UP YOUR MIND
TTITLE16=OH LADY BE GOOD
TTITLE17=MEMPHIS BLUES
TTITLE18=WHISTLIN THE BLUES
TTITLE19=SWEET LORRAINE
TTITLE20=FOUR OR FIVE TIMES
TTITLE21=THATS A PLENTY
TTITLE22=SWEET SUE JUST YOU
EXTD=
EXTT0=
EXTT1=
EXTT2=
EXTT3=
EXTT4=
EXTT5=
EXTT6=
EXTT7=
EXTT8=
EXTT9=
EXTT10=
EXTT11=
EXTT12=
EXTT13=
EXTT14=
EXTT15=
EXTT16=
EXTT17=
EXTT18=
EXTT19=
EXTT20=
EXTT21=
EXTT22=
PLAYORDER=
